<?xml version="1.0" encoding="UTF-8" standalone="no"?>
<!DOCTYPE svg PUBLIC "-//W3C//DTD SVG 1.0//EN"
 "http://www.w3.org/TR/2001/REC-SVG-20010904/DTD/svg10.dtd" [
 <!ATTLIST svg xmlns:xlink CDATA #FIXED "http://www.w3.org/1999/xlink">
]>
<!-- Generated by Graphviz version 2.20.2 (Tue Mar &#160;2 21:46:26 UTC 2010)
     For user: (ror) ror,,, -->
<!-- Title: controllers_diagram Pages: 1 -->
<svg width="628pt" height="690pt"
 viewBox="0.00 0.00 628.00 690.00" xmlns="http://www.w3.org/2000/svg" xmlns:xlink="http://www.w3.org/1999/xlink">
<g id="graph0" class="graph" transform="scale(1 1) rotate(0) translate(4 686)">
<title>controllers_diagram</title>
<polygon style="fill:white;stroke:white;" points="-4,4 -4,-686 624,-686 624,4 -4,4"/>
<!-- _diagram_info -->
<g id="node1" class="node"><title>_diagram_info</title>
<text text-anchor="start" x="328.5" y="-217.8" style="font-family:Times New Roman;font-size:13.00;">Controllers diagram</text>
<text text-anchor="start" x="328.5" y="-200.8" style="font-family:Times New Roman;font-size:13.00;">Date: Mar 15 2012 &#45; 15:53</text>
<text text-anchor="start" x="328.5" y="-183.8" style="font-family:Times New Roman;font-size:13.00;">Migration version: 20120315102304</text>
<text text-anchor="start" x="328.5" y="-166.8" style="font-family:Times New Roman;font-size:13.00;">Generated by RailRoady 1.0.7</text>
<text text-anchor="start" x="328.5" y="-149.8" style="font-family:Times New Roman;font-size:13.00;">http://railroady.prestonlee.com</text>
</g>
<!-- RabotniksController -->
<g id="node2" class="node"><title>RabotniksController</title>
<polyline style="fill:none;stroke:black;" points="333,-260 462,-260 "/>
<path style="fill:none;stroke:black;" d="M462,-260C468,-260 474,-266 474,-272"/>
<polyline style="fill:none;stroke:black;" points="474,-272 474,-449 "/>
<path style="fill:none;stroke:black;" d="M474,-449C474,-455 468,-461 462,-461"/>
<polyline style="fill:none;stroke:black;" points="462,-461 333,-461 "/>
<path style="fill:none;stroke:black;" d="M333,-461C327,-461 321,-455 321,-449"/>
<polyline style="fill:none;stroke:black;" points="321,-449 321,-272 "/>
<path style="fill:none;stroke:black;" d="M321,-272C321,-266 327,-260 333,-260"/>
<text text-anchor="middle" x="397" y="-443.9" style="font-family:Times New Roman;font-size:14.00;">RabotniksController</text>
<polyline style="fill:none;stroke:black;" points="321,-436 474,-436 "/>
<text text-anchor="start" x="328.5" y="-418.9" style="font-family:Times New Roman;font-size:14.00;">create</text>
<text text-anchor="start" x="328.5" y="-401.9" style="font-family:Times New Roman;font-size:14.00;">destroy</text>
<text text-anchor="start" x="328.5" y="-384.9" style="font-family:Times New Roman;font-size:14.00;">edit</text>
<text text-anchor="start" x="328.5" y="-367.9" style="font-family:Times New Roman;font-size:14.00;">index</text>
<text text-anchor="start" x="328.5" y="-350.9" style="font-family:Times New Roman;font-size:14.00;">new</text>
<text text-anchor="start" x="328.5" y="-333.9" style="font-family:Times New Roman;font-size:14.00;">show</text>
<text text-anchor="start" x="328.5" y="-316.9" style="font-family:Times New Roman;font-size:14.00;">update</text>
<polyline style="fill:none;stroke:black;" points="321,-309 474,-309 "/>
<polyline style="fill:none;stroke:black;" points="321,-285 474,-285 "/>
<text text-anchor="start" x="328.5" y="-267.9" style="font-family:Times New Roman;font-size:14.00;">_layout</text>
</g>
<!-- DocsController -->
<g id="node3" class="node"><title>DocsController</title>
<polyline style="fill:none;stroke:black;" points="513,-260 607,-260 "/>
<path style="fill:none;stroke:black;" d="M607,-260C613,-260 619,-266 619,-272"/>
<polyline style="fill:none;stroke:black;" points="619,-272 619,-449 "/>
<path style="fill:none;stroke:black;" d="M619,-449C619,-455 613,-461 607,-461"/>
<polyline style="fill:none;stroke:black;" points="607,-461 513,-461 "/>
<path style="fill:none;stroke:black;" d="M513,-461C507,-461 501,-455 501,-449"/>
<polyline style="fill:none;stroke:black;" points="501,-449 501,-272 "/>
<path style="fill:none;stroke:black;" d="M501,-272C501,-266 507,-260 513,-260"/>
<text text-anchor="middle" x="560" y="-443.9" style="font-family:Times New Roman;font-size:14.00;">DocsController</text>
<polyline style="fill:none;stroke:black;" points="501,-436 619,-436 "/>
<text text-anchor="start" x="509" y="-418.9" style="font-family:Times New Roman;font-size:14.00;">create</text>
<text text-anchor="start" x="509" y="-401.9" style="font-family:Times New Roman;font-size:14.00;">destroy</text>
<text text-anchor="start" x="509" y="-384.9" style="font-family:Times New Roman;font-size:14.00;">edit</text>
<text text-anchor="start" x="509" y="-367.9" style="font-family:Times New Roman;font-size:14.00;">index</text>
<text text-anchor="start" x="509" y="-350.9" style="font-family:Times New Roman;font-size:14.00;">new</text>
<text text-anchor="start" x="509" y="-333.9" style="font-family:Times New Roman;font-size:14.00;">show</text>
<text text-anchor="start" x="509" y="-316.9" style="font-family:Times New Roman;font-size:14.00;">update</text>
<polyline style="fill:none;stroke:black;" points="501,-309 619,-309 "/>
<polyline style="fill:none;stroke:black;" points="501,-285 619,-285 "/>
<text text-anchor="start" x="509" y="-267.9" style="font-family:Times New Roman;font-size:14.00;">_layout</text>
</g>
<!-- SkladsController -->
<g id="node4" class="node"><title>SkladsController</title>
<polyline style="fill:none;stroke:black;" points="13,-220 118,-220 "/>
<path style="fill:none;stroke:black;" d="M118,-220C124,-220 130,-226 130,-232"/>
<polyline style="fill:none;stroke:black;" points="130,-232 130,-409 "/>
<path style="fill:none;stroke:black;" d="M130,-409C130,-415 124,-421 118,-421"/>
<polyline style="fill:none;stroke:black;" points="118,-421 13,-421 "/>
<path style="fill:none;stroke:black;" d="M13,-421C7,-421 1,-415 1,-409"/>
<polyline style="fill:none;stroke:black;" points="1,-409 1,-232 "/>
<path style="fill:none;stroke:black;" d="M1,-232C1,-226 7,-220 13,-220"/>
<text text-anchor="middle" x="65" y="-403.9" style="font-family:Times New Roman;font-size:14.00;">SkladsController</text>
<polyline style="fill:none;stroke:black;" points="1,-396 130,-396 "/>
<text text-anchor="start" x="8.5" y="-378.9" style="font-family:Times New Roman;font-size:14.00;">create</text>
<text text-anchor="start" x="8.5" y="-361.9" style="font-family:Times New Roman;font-size:14.00;">destroy</text>
<text text-anchor="start" x="8.5" y="-344.9" style="font-family:Times New Roman;font-size:14.00;">edit</text>
<text text-anchor="start" x="8.5" y="-327.9" style="font-family:Times New Roman;font-size:14.00;">index</text>
<text text-anchor="start" x="8.5" y="-310.9" style="font-family:Times New Roman;font-size:14.00;">new</text>
<text text-anchor="start" x="8.5" y="-293.9" style="font-family:Times New Roman;font-size:14.00;">show</text>
<text text-anchor="start" x="8.5" y="-276.9" style="font-family:Times New Roman;font-size:14.00;">update</text>
<polyline style="fill:none;stroke:black;" points="1,-269 130,-269 "/>
<polyline style="fill:none;stroke:black;" points="1,-245 130,-245 "/>
<text text-anchor="start" x="8.5" y="-227.9" style="font-family:Times New Roman;font-size:14.00;">_layout</text>
</g>
<!-- TipSosController -->
<g id="node5" class="node"><title>TipSosController</title>
<polyline style="fill:none;stroke:black;" points="13,-0 118,-0 "/>
<path style="fill:none;stroke:black;" d="M118,-0C124,-0 130,-6 130,-12"/>
<polyline style="fill:none;stroke:black;" points="130,-12 130,-189 "/>
<path style="fill:none;stroke:black;" d="M130,-189C130,-195 124,-201 118,-201"/>
<polyline style="fill:none;stroke:black;" points="118,-201 13,-201 "/>
<path style="fill:none;stroke:black;" d="M13,-201C7,-201 1,-195 1,-189"/>
<polyline style="fill:none;stroke:black;" points="1,-189 1,-12 "/>
<path style="fill:none;stroke:black;" d="M1,-12C1,-6 7,-0 13,-0"/>
<text text-anchor="middle" x="65" y="-183.9" style="font-family:Times New Roman;font-size:14.00;">TipSosController</text>
<polyline style="fill:none;stroke:black;" points="1,-176 130,-176 "/>
<text text-anchor="start" x="8.5" y="-158.9" style="font-family:Times New Roman;font-size:14.00;">create</text>
<text text-anchor="start" x="8.5" y="-141.9" style="font-family:Times New Roman;font-size:14.00;">destroy</text>
<text text-anchor="start" x="8.5" y="-124.9" style="font-family:Times New Roman;font-size:14.00;">edit</text>
<text text-anchor="start" x="8.5" y="-107.9" style="font-family:Times New Roman;font-size:14.00;">index</text>
<text text-anchor="start" x="8.5" y="-90.9" style="font-family:Times New Roman;font-size:14.00;">new</text>
<text text-anchor="start" x="8.5" y="-73.9" style="font-family:Times New Roman;font-size:14.00;">show</text>
<text text-anchor="start" x="8.5" y="-56.9" style="font-family:Times New Roman;font-size:14.00;">update</text>
<polyline style="fill:none;stroke:black;" points="1,-49 130,-49 "/>
<polyline style="fill:none;stroke:black;" points="1,-25 130,-25 "/>
<text text-anchor="start" x="8.5" y="-7.9" style="font-family:Times New Roman;font-size:14.00;">_layout</text>
</g>
<!-- ApplicationController -->
<g id="node6" class="node"><title>ApplicationController</title>
<polyline style="fill:none;stroke:black;" points="333,-20 537,-20 "/>
<path style="fill:none;stroke:black;" d="M537,-20C543,-20 549,-26 549,-32"/>
<polyline style="fill:none;stroke:black;" points="549,-32 549,-107 "/>
<path style="fill:none;stroke:black;" d="M549,-107C549,-113 543,-119 537,-119"/>
<polyline style="fill:none;stroke:black;" points="537,-119 333,-119 "/>
<path style="fill:none;stroke:black;" d="M333,-119C327,-119 321,-113 321,-107"/>
<polyline style="fill:none;stroke:black;" points="321,-107 321,-32 "/>
<path style="fill:none;stroke:black;" d="M321,-32C321,-26 327,-20 333,-20"/>
<text text-anchor="middle" x="435" y="-101.9" style="font-family:Times New Roman;font-size:14.00;">ApplicationController</text>
<polyline style="fill:none;stroke:black;" points="321,-94 549,-94 "/>
<text text-anchor="start" x="329" y="-76.9" style="font-family:Times New Roman;font-size:14.00;">_one_time_conditions_valid_8?</text>
<polyline style="fill:none;stroke:black;" points="321,-69 549,-69 "/>
<polyline style="fill:none;stroke:black;" points="321,-45 549,-45 "/>
<text text-anchor="start" x="329" y="-27.9" style="font-family:Times New Roman;font-size:14.00;">_layout</text>
</g>
<!-- DolgnostsController -->
<g id="node7" class="node"><title>DolgnostsController</title>
<polyline style="fill:none;stroke:black;" points="153,-340 282,-340 "/>
<path style="fill:none;stroke:black;" d="M282,-340C288,-340 294,-346 294,-352"/>
<polyline style="fill:none;stroke:black;" points="294,-352 294,-529 "/>
<path style="fill:none;stroke:black;" d="M294,-529C294,-535 288,-541 282,-541"/>
<polyline style="fill:none;stroke:black;" points="282,-541 153,-541 "/>
<path style="fill:none;stroke:black;" d="M153,-541C147,-541 141,-535 141,-529"/>
<polyline style="fill:none;stroke:black;" points="141,-529 141,-352 "/>
<path style="fill:none;stroke:black;" d="M141,-352C141,-346 147,-340 153,-340"/>
<text text-anchor="middle" x="217" y="-523.9" style="font-family:Times New Roman;font-size:14.00;">DolgnostsController</text>
<polyline style="fill:none;stroke:black;" points="141,-516 294,-516 "/>
<text text-anchor="start" x="148.5" y="-498.9" style="font-family:Times New Roman;font-size:14.00;">create</text>
<text text-anchor="start" x="148.5" y="-481.9" style="font-family:Times New Roman;font-size:14.00;">destroy</text>
<text text-anchor="start" x="148.5" y="-464.9" style="font-family:Times New Roman;font-size:14.00;">edit</text>
<text text-anchor="start" x="148.5" y="-447.9" style="font-family:Times New Roman;font-size:14.00;">index</text>
<text text-anchor="start" x="148.5" y="-430.9" style="font-family:Times New Roman;font-size:14.00;">new</text>
<text text-anchor="start" x="148.5" y="-413.9" style="font-family:Times New Roman;font-size:14.00;">show</text>
<text text-anchor="start" x="148.5" y="-396.9" style="font-family:Times New Roman;font-size:14.00;">update</text>
<polyline style="fill:none;stroke:black;" points="141,-389 294,-389 "/>
<polyline style="fill:none;stroke:black;" points="141,-365 294,-365 "/>
<text text-anchor="start" x="148.5" y="-347.9" style="font-family:Times New Roman;font-size:14.00;">_layout</text>
</g>
<!-- VidSosController -->
<g id="node8" class="node"><title>VidSosController</title>
<polyline style="fill:none;stroke:black;" points="13,-460 120,-460 "/>
<path style="fill:none;stroke:black;" d="M120,-460C126,-460 132,-466 132,-472"/>
<polyline style="fill:none;stroke:black;" points="132,-472 132,-649 "/>
<path style="fill:none;stroke:black;" d="M132,-649C132,-655 126,-661 120,-661"/>
<polyline style="fill:none;stroke:black;" points="120,-661 13,-661 "/>
<path style="fill:none;stroke:black;" d="M13,-661C7,-661 1,-655 1,-649"/>
<polyline style="fill:none;stroke:black;" points="1,-649 1,-472 "/>
<path style="fill:none;stroke:black;" d="M1,-472C1,-466 7,-460 13,-460"/>
<text text-anchor="middle" x="66" y="-643.9" style="font-family:Times New Roman;font-size:14.00;">VidSosController</text>
<polyline style="fill:none;stroke:black;" points="1,-636 132,-636 "/>
<text text-anchor="start" x="8.5" y="-618.9" style="font-family:Times New Roman;font-size:14.00;">create</text>
<text text-anchor="start" x="8.5" y="-601.9" style="font-family:Times New Roman;font-size:14.00;">destroy</text>
<text text-anchor="start" x="8.5" y="-584.9" style="font-family:Times New Roman;font-size:14.00;">edit</text>
<text text-anchor="start" x="8.5" y="-567.9" style="font-family:Times New Roman;font-size:14.00;">index</text>
<text text-anchor="start" x="8.5" y="-550.9" style="font-family:Times New Roman;font-size:14.00;">new</text>
<text text-anchor="start" x="8.5" y="-533.9" style="font-family:Times New Roman;font-size:14.00;">show</text>
<text text-anchor="start" x="8.5" y="-516.9" style="font-family:Times New Roman;font-size:14.00;">update</text>
<polyline style="fill:none;stroke:black;" points="1,-509 132,-509 "/>
<polyline style="fill:none;stroke:black;" points="1,-485 132,-485 "/>
<text text-anchor="start" x="8.5" y="-467.9" style="font-family:Times New Roman;font-size:14.00;">_layout</text>
</g>
<!-- PostavshiksController -->
<g id="node9" class="node"><title>PostavshiksController</title>
<polyline style="fill:none;stroke:black;" points="153,-120 294,-120 "/>
<path style="fill:none;stroke:black;" d="M294,-120C300,-120 306,-126 306,-132"/>
<polyline style="fill:none;stroke:black;" points="306,-132 306,-309 "/>
<path style="fill:none;stroke:black;" d="M306,-309C306,-315 300,-321 294,-321"/>
<polyline style="fill:none;stroke:black;" points="294,-321 153,-321 "/>
<path style="fill:none;stroke:black;" d="M153,-321C147,-321 141,-315 141,-309"/>
<polyline style="fill:none;stroke:black;" points="141,-309 141,-132 "/>
<path style="fill:none;stroke:black;" d="M141,-132C141,-126 147,-120 153,-120"/>
<text text-anchor="middle" x="223" y="-303.9" style="font-family:Times New Roman;font-size:14.00;">PostavshiksController</text>
<polyline style="fill:none;stroke:black;" points="141,-296 306,-296 "/>
<text text-anchor="start" x="148.5" y="-278.9" style="font-family:Times New Roman;font-size:14.00;">create</text>
<text text-anchor="start" x="148.5" y="-261.9" style="font-family:Times New Roman;font-size:14.00;">destroy</text>
<text text-anchor="start" x="148.5" y="-244.9" style="font-family:Times New Roman;font-size:14.00;">edit</text>
<text text-anchor="start" x="148.5" y="-227.9" style="font-family:Times New Roman;font-size:14.00;">index</text>
<text text-anchor="start" x="148.5" y="-210.9" style="font-family:Times New Roman;font-size:14.00;">new</text>
<text text-anchor="start" x="148.5" y="-193.9" style="font-family:Times New Roman;font-size:14.00;">show</text>
<text text-anchor="start" x="148.5" y="-176.9" style="font-family:Times New Roman;font-size:14.00;">update</text>
<polyline style="fill:none;stroke:black;" points="141,-169 306,-169 "/>
<polyline style="fill:none;stroke:black;" points="141,-145 306,-145 "/>
<text text-anchor="start" x="148.5" y="-127.9" style="font-family:Times New Roman;font-size:14.00;">_layout</text>
</g>
<!-- SizsController -->
<g id="node10" class="node"><title>SizsController</title>
<polyline style="fill:none;stroke:black;" points="513,-480 602,-480 "/>
<path style="fill:none;stroke:black;" d="M602,-480C608,-480 614,-486 614,-492"/>
<polyline style="fill:none;stroke:black;" points="614,-492 614,-669 "/>
<path style="fill:none;stroke:black;" d="M614,-669C614,-675 608,-681 602,-681"/>
<polyline style="fill:none;stroke:black;" points="602,-681 513,-681 "/>
<path style="fill:none;stroke:black;" d="M513,-681C507,-681 501,-675 501,-669"/>
<polyline style="fill:none;stroke:black;" points="501,-669 501,-492 "/>
<path style="fill:none;stroke:black;" d="M501,-492C501,-486 507,-480 513,-480"/>
<text text-anchor="middle" x="557" y="-663.9" style="font-family:Times New Roman;font-size:14.00;">SizsController</text>
<polyline style="fill:none;stroke:black;" points="501,-656 614,-656 "/>
<text text-anchor="start" x="508.5" y="-638.9" style="font-family:Times New Roman;font-size:14.00;">create</text>
<text text-anchor="start" x="508.5" y="-621.9" style="font-family:Times New Roman;font-size:14.00;">destroy</text>
<text text-anchor="start" x="508.5" y="-604.9" style="font-family:Times New Roman;font-size:14.00;">edit</text>
<text text-anchor="start" x="508.5" y="-587.9" style="font-family:Times New Roman;font-size:14.00;">index</text>
<text text-anchor="start" x="508.5" y="-570.9" style="font-family:Times New Roman;font-size:14.00;">new</text>
<text text-anchor="start" x="508.5" y="-553.9" style="font-family:Times New Roman;font-size:14.00;">show</text>
<text text-anchor="start" x="508.5" y="-536.9" style="font-family:Times New Roman;font-size:14.00;">update</text>
<polyline style="fill:none;stroke:black;" points="501,-529 614,-529 "/>
<polyline style="fill:none;stroke:black;" points="501,-505 614,-505 "/>
<text text-anchor="start" x="508.5" y="-487.9" style="font-family:Times New Roman;font-size:14.00;">_layout</text>
</g>
</g>
</svg>
