<?xml version="1.0" encoding="UTF-8" standalone="no"?>
<!DOCTYPE svg PUBLIC "-//W3C//DTD SVG 1.0//EN"
 "http://www.w3.org/TR/2001/REC-SVG-20010904/DTD/svg10.dtd" [
 <!ATTLIST svg xmlns:xlink CDATA #FIXED "http://www.w3.org/1999/xlink">
]>
<!-- Generated by Graphviz version 2.20.2 (Tue Mar &#160;2 21:46:26 UTC 2010)
     For user: (ror) ror,,, -->
<!-- Title: models_diagram Pages: 1 -->
<svg width="906pt" height="318pt"
 viewBox="0.00 0.00 906.00 318.00" xmlns="http://www.w3.org/2000/svg" xmlns:xlink="http://www.w3.org/1999/xlink">
<g id="graph0" class="graph" transform="scale(1 1) rotate(0) translate(4 314)">
<title>models_diagram</title>
<polygon style="fill:white;stroke:white;" points="-4,4 -4,-314 902,-314 902,4 -4,4"/>
<!-- _diagram_info -->
<g id="node1" class="node"><title>_diagram_info</title>
<text text-anchor="start" x="7.5" y="-293.8" style="font-family:Times New Roman;font-size:13.00;">Models diagram</text>
<text text-anchor="start" x="7.5" y="-276.8" style="font-family:Times New Roman;font-size:13.00;">Date: Mar 15 2012 &#45; 15:53</text>
<text text-anchor="start" x="7.5" y="-259.8" style="font-family:Times New Roman;font-size:13.00;">Migration version: 20120315102304</text>
<text text-anchor="start" x="7.5" y="-242.8" style="font-family:Times New Roman;font-size:13.00;">Generated by RailRoady 1.0.7</text>
<text text-anchor="start" x="7.5" y="-225.8" style="font-family:Times New Roman;font-size:13.00;">http://railroady.prestonlee.com</text>
</g>
<!-- VidSo -->
<g id="node2" class="node"><title>VidSo</title>
<ellipse style="fill:none;stroke:black;" cx="768" cy="-162" rx="38.2185" ry="18"/>
<text text-anchor="middle" x="768" y="-157.9" style="font-family:Times New Roman;font-size:14.00;">VidSo</text>
</g>
<!-- Siz -->
<g id="node6" class="node"><title>Siz</title>
<ellipse style="fill:none;stroke:black;" cx="687" cy="-90" rx="27" ry="18"/>
<text text-anchor="middle" x="687" y="-85.9" style="font-family:Times New Roman;font-size:14.00;">Siz</text>
</g>
<!-- VidSo&#45;&gt;Siz -->
<g id="edge2" class="edge"><title>VidSo&#45;&gt;Siz</title>
<path style="fill:none;stroke:#f11fbc;" d="M744,-141C734,-131 721,-121 711,-112"/>
<ellipse style="fill:none;stroke:#f11fbc;" cx="746.927" cy="-143.439" rx="4.00002" ry="4.00002"/>
<polygon style="fill:#f11fbc;stroke:#f11fbc;" points="710.526,-111.585 705.963,-101.613 706.763,-108.293 703,-105 703,-105 703,-105 706.763,-108.293 700.037,-108.387 710.526,-111.585 710.526,-111.585"/>
</g>
<!-- TipDoc -->
<g id="node3" class="node"><title>TipDoc</title>
<ellipse style="fill:none;stroke:black;" cx="308" cy="-162" rx="43.7776" ry="18"/>
<text text-anchor="middle" x="308" y="-157.9" style="font-family:Times New Roman;font-size:14.00;">TipDoc</text>
</g>
<!-- Doc -->
<g id="node11" class="node"><title>Doc</title>
<ellipse style="fill:none;stroke:black;" cx="559" cy="-90" rx="29.1851" ry="18"/>
<text text-anchor="middle" x="559" y="-85.9" style="font-family:Times New Roman;font-size:14.00;">Doc</text>
</g>
<!-- TipDoc&#45;&gt;Doc -->
<g id="edge4" class="edge"><title>TipDoc&#45;&gt;Doc</title>
<path style="fill:none;stroke:#533a88;" d="M350,-148C354,-146 357,-145 361,-144 417,-127 483,-109 522,-99"/>
<ellipse style="fill:none;stroke:#533a88;" cx="345.881" cy="-149.03" rx="4.00001" ry="4.00001"/>
<polygon style="fill:#533a88;stroke:#533a88;" points="522.194,-98.9612 532.883,-101.413 527.097,-97.9806 532,-97 532,-97 532,-97 527.097,-97.9806 531.117,-92.5874 522.194,-98.9612 522.194,-98.9612"/>
</g>
<!-- Otdel -->
<g id="node4" class="node"><title>Otdel</title>
<ellipse style="fill:none;stroke:black;" cx="621" cy="-263" rx="37.0233" ry="18"/>
<text text-anchor="middle" x="621" y="-258.9" style="font-family:Times New Roman;font-size:14.00;">Otdel</text>
</g>
<!-- Rabotnik -->
<g id="node10" class="node"><title>Rabotnik</title>
<ellipse style="fill:none;stroke:black;" cx="566" cy="-162" rx="54.2008" ry="18"/>
<text text-anchor="middle" x="566" y="-157.9" style="font-family:Times New Roman;font-size:14.00;">Rabotnik</text>
</g>
<!-- Otdel&#45;&gt;Rabotnik -->
<g id="edge6" class="edge"><title>Otdel&#45;&gt;Rabotnik</title>
<path style="fill:none;stroke:#4041b1;" d="M607,-238C600,-223 589,-204 581,-189"/>
<ellipse style="fill:none;stroke:#4041b1;" cx="609.015" cy="-241.527" rx="4.00002" ry="4.00002"/>
<polygon style="fill:#4041b1;stroke:#4041b1;" points="580.856,-188.742 579.934,-177.815 578.428,-184.371 576,-180 576,-180 576,-180 578.428,-184.371 572.066,-182.185 580.856,-188.742 580.856,-188.742"/>
</g>
<!-- TipSo -->
<g id="node5" class="node"><title>TipSo</title>
<ellipse style="fill:none;stroke:black;" cx="675" cy="-162" rx="37.0233" ry="18"/>
<text text-anchor="middle" x="675" y="-157.9" style="font-family:Times New Roman;font-size:14.00;">TipSo</text>
</g>
<!-- TipSo&#45;&gt;Siz -->
<g id="edge8" class="edge"><title>TipSo&#45;&gt;Siz</title>
<path style="fill:none;stroke:#ccfdca;" d="M679,-136C680,-130 681,-124 682,-118"/>
<ellipse style="fill:none;stroke:#ccfdca;" cx="678.496" cy="-140.031" rx="4.00001" ry="4.00001"/>
<polygon style="fill:#ccfdca;stroke:#ccfdca;" points="682.039,-117.806 688.413,-108.883 683.019,-112.903 684,-108 684,-108 684,-108 683.019,-112.903 679.587,-107.117 682.039,-117.806 682.039,-117.806"/>
</g>
<!-- UsrHistory -->
<g id="node7" class="node"><title>UsrHistory</title>
<ellipse style="fill:none;stroke:black;" cx="687" cy="-18" rx="61.8445" ry="18"/>
<text text-anchor="middle" x="687" y="-13.9" style="font-family:Times New Roman;font-size:14.00;">UsrHistory</text>
</g>
<!-- Siz&#45;&gt;UsrHistory -->
<g id="edge12" class="edge"><title>Siz&#45;&gt;UsrHistory</title>
<path style="fill:none;stroke:#2f1e16;" d="M687,-64C687,-58 687,-52 687,-46"/>
<ellipse style="fill:none;stroke:#2f1e16;" cx="687" cy="-68" rx="4" ry="4"/>
<polygon style="fill:#2f1e16;stroke:#2f1e16;" points="687,-46 691.5,-36 687,-41 687,-36 687,-36 687,-36 687,-41 682.5,-36 687,-46 687,-46"/>
</g>
<!-- DocTable -->
<g id="node9" class="node"><title>DocTable</title>
<ellipse style="fill:none;stroke:black;" cx="553" cy="-18" rx="54.2008" ry="18"/>
<text text-anchor="middle" x="553" y="-13.9" style="font-family:Times New Roman;font-size:14.00;">DocTable</text>
</g>
<!-- Siz&#45;&gt;DocTable -->
<g id="edge10" class="edge"><title>Siz&#45;&gt;DocTable</title>
<path style="fill:none;stroke:#cf46ee;" d="M659,-75C639,-64 613,-50 591,-38"/>
<ellipse style="fill:none;stroke:#cf46ee;" cx="662.527" cy="-77.0154" rx="4.00002" ry="4.00002"/>
<polygon style="fill:#cf46ee;stroke:#cf46ee;" points="590.742,-37.8565 584.185,-29.0663 586.371,-35.4282 582,-33 582,-33 582,-33 586.371,-35.4282 579.815,-36.9337 590.742,-37.8565 590.742,-37.8565"/>
</g>
<!-- Ostatok -->
<g id="node15" class="node"><title>Ostatok</title>
<ellipse style="fill:none;stroke:black;" cx="827" cy="-18" rx="48.8383" ry="18"/>
<text text-anchor="middle" x="827" y="-13.9" style="font-family:Times New Roman;font-size:14.00;">Ostatok</text>
</g>
<!-- Siz&#45;&gt;Ostatok -->
<g id="edge14" class="edge"><title>Siz&#45;&gt;Ostatok</title>
<path style="fill:none;stroke:#22bd74;" d="M716,-75C737,-64 767,-50 789,-38"/>
<ellipse style="fill:none;stroke:#22bd74;" cx="712.473" cy="-77.0154" rx="4.00002" ry="4.00002"/>
<polygon style="fill:#22bd74;stroke:#22bd74;" points="789.258,-37.8565 800.185,-36.9337 793.629,-35.4282 798,-33 798,-33 798,-33 793.629,-35.4282 795.815,-29.0663 789.258,-37.8565 789.258,-37.8565"/>
</g>
<!-- Postavshik -->
<g id="node8" class="node"><title>Postavshik</title>
<ellipse style="fill:none;stroke:black;" cx="432" cy="-162" rx="62.0391" ry="18"/>
<text text-anchor="middle" x="432" y="-157.9" style="font-family:Times New Roman;font-size:14.00;">Postavshik</text>
</g>
<!-- Postavshik&#45;&gt;Doc -->
<g id="edge16" class="edge"><title>Postavshik&#45;&gt;Doc</title>
<path style="fill:none;stroke:#4a8700;" d="M468,-142C487,-132 510,-118 528,-107"/>
<ellipse style="fill:none;stroke:#4a8700;" cx="464.473" cy="-144.015" rx="4.00002" ry="4.00002"/>
<polygon style="fill:#4a8700;stroke:#4a8700;" points="528.258,-106.856 539.185,-105.934 532.629,-104.428 537,-102 537,-102 537,-102 532.629,-104.428 534.815,-98.0663 528.258,-106.856 528.258,-106.856"/>
</g>
<!-- Rabotnik&#45;&gt;Doc -->
<g id="edge18" class="edge"><title>Rabotnik&#45;&gt;Doc</title>
<path style="fill:none;stroke:#ab4784;" d="M563,-136C563,-130 563,-124 562,-118"/>
<ellipse style="fill:none;stroke:#ab4784;" cx="563.504" cy="-140.031" rx="4.00001" ry="4.00001"/>
<polygon style="fill:#ab4784;stroke:#ab4784;" points="561.995,-117.95 565.478,-107.552 561.498,-112.975 561,-108 561,-108 561,-108 561.498,-112.975 556.522,-108.448 561.995,-117.95 561.995,-117.95"/>
</g>
<!-- Doc&#45;&gt;UsrHistory -->
<g id="edge22" class="edge"><title>Doc&#45;&gt;UsrHistory</title>
<path style="fill:none;stroke:#0f9115;" d="M588,-74C606,-64 630,-50 649,-39"/>
<ellipse style="fill:none;stroke:#0f9115;" cx="584.473" cy="-76.0154" rx="4.00002" ry="4.00002"/>
<polygon style="fill:#0f9115;stroke:#0f9115;" points="649.258,-38.8565 660.185,-37.9337 653.629,-36.4282 658,-34 658,-34 658,-34 653.629,-36.4282 655.815,-30.0663 649.258,-38.8565 649.258,-38.8565"/>
</g>
<!-- Doc&#45;&gt;DocTable -->
<g id="edge20" class="edge"><title>Doc&#45;&gt;DocTable</title>
<path style="fill:none;stroke:#c15a6e;" d="M556,-64C556,-58 556,-52 555,-46"/>
<ellipse style="fill:none;stroke:#c15a6e;" cx="556.504" cy="-68.0309" rx="4.00001" ry="4.00001"/>
<polygon style="fill:#c15a6e;stroke:#c15a6e;" points="555,-46 559.5,-36 555,-41 555,-36 555,-36 555,-36 555,-41 550.5,-36 555,-46 555,-46"/>
</g>
<!-- Sklad -->
<g id="node12" class="node"><title>Sklad</title>
<ellipse style="fill:none;stroke:black;" cx="861" cy="-162" rx="37.0233" ry="18"/>
<text text-anchor="middle" x="861" y="-157.9" style="font-family:Times New Roman;font-size:14.00;">Sklad</text>
</g>
<!-- Sklad&#45;&gt;Doc -->
<g id="edge24" class="edge"><title>Sklad&#45;&gt;Doc</title>
<path style="fill:none;stroke:#6206a7;" d="M825,-147C822,-146 818,-145 815,-144 794,-137 662,-111 597,-98"/>
<ellipse style="fill:none;stroke:#6206a7;" cx="829.255" cy="-148.595" rx="4.00001" ry="4.00001"/>
<polygon style="fill:#6206a7;stroke:#6206a7;" points="596.806,-97.9612 587.883,-91.5874 591.903,-96.9806 587,-96 587,-96 587,-96 591.903,-96.9806 586.117,-100.413 596.806,-97.9612 596.806,-97.9612"/>
</g>
<!-- Sklad&#45;&gt;Ostatok -->
<g id="edge26" class="edge"><title>Sklad&#45;&gt;Ostatok</title>
<path style="fill:none;stroke:#6aa971;" d="M855,-136C850,-111 840,-72 833,-46"/>
<ellipse style="fill:none;stroke:#6aa971;" cx="856.03" cy="-140.119" rx="4.00001" ry="4.00001"/>
<polygon style="fill:#6aa971;stroke:#6aa971;" points="832.961,-45.8058 835.413,-35.1174 831.981,-40.9029 831,-36 831,-36 831,-36 831.981,-40.9029 826.587,-36.8826 832.961,-45.8058 832.961,-45.8058"/>
</g>
<!-- Dolgnost -->
<g id="node13" class="node"><title>Dolgnost</title>
<ellipse style="fill:none;stroke:black;" cx="512" cy="-263" rx="54.2008" ry="18"/>
<text text-anchor="middle" x="512" y="-258.9" style="font-family:Times New Roman;font-size:14.00;">Dolgnost</text>
</g>
<!-- Dolgnost&#45;&gt;Rabotnik -->
<g id="edge28" class="edge"><title>Dolgnost&#45;&gt;Rabotnik</title>
<path style="fill:none;stroke:#ce7cbd;" d="M526,-238C533,-223 543,-204 551,-189"/>
<ellipse style="fill:none;stroke:#ce7cbd;" cx="523.985" cy="-241.527" rx="4.00002" ry="4.00002"/>
<polygon style="fill:#ce7cbd;stroke:#ce7cbd;" points="551.144,-188.742 559.934,-182.185 553.572,-184.371 556,-180 556,-180 556,-180 553.572,-184.371 552.066,-177.815 551.144,-188.742 551.144,-188.742"/>
</g>
<!-- Razmer -->
<g id="node14" class="node"><title>Razmer</title>
<ellipse style="fill:none;stroke:black;" cx="314" cy="-263" rx="47.9469" ry="18"/>
<text text-anchor="middle" x="314" y="-258.9" style="font-family:Times New Roman;font-size:14.00;">Razmer</text>
</g>
<!-- Razmer&#45;&gt;DocTable -->
<g id="edge32" class="edge"><title>Razmer&#45;&gt;DocTable</title>
<path style="fill:none;stroke:#93ef73;" d="M289,-240C265,-216 235,-175 255,-144 307,-65 420,-36 491,-25"/>
<ellipse style="fill:none;stroke:#93ef73;" cx="292.172" cy="-243.172" rx="4.00002" ry="4.00002"/>
<polygon style="fill:#93ef73;stroke:#93ef73;" points="491.194,-24.9612 501.883,-27.4126 496.097,-23.9806 501,-23 501,-23 501,-23 496.097,-23.9806 500.117,-18.5874 491.194,-24.9612 491.194,-24.9612"/>
</g>
<!-- Razmer&#45;&gt;Rabotnik -->
<g id="edge30" class="edge"><title>Razmer&#45;&gt;Rabotnik</title>
<path style="fill:none;stroke:#97cf5c;" d="M354,-247C400,-227 474,-198 522,-180"/>
<ellipse style="fill:none;stroke:#97cf5c;" cx="350.677" cy="-248.424" rx="4.00002" ry="4.00002"/>
<polygon style="fill:#97cf5c;stroke:#97cf5c;" points="521.862,-180.061 532.828,-180.112 526.431,-178.031 531,-176 531,-176 531,-176 526.431,-178.031 529.172,-171.888 521.862,-180.061 521.862,-180.061"/>
</g>
</g>
</svg>
