<?xml version="1.0" encoding="UTF-8" standalone="no"?>
<!DOCTYPE svg PUBLIC "-//W3C//DTD SVG 1.0//EN"
 "http://www.w3.org/TR/2001/REC-SVG-20010904/DTD/svg10.dtd" [
 <!ATTLIST svg xmlns:xlink CDATA #FIXED "http://www.w3.org/1999/xlink">
]>
<!-- Generated by Graphviz version 2.20.2 (Tue Mar &#160;2 21:46:26 UTC 2010)
     For user: (ror) ror,,, -->
<!-- Title: models_diagram Pages: 1 -->
<svg width="1357pt" height="624pt"
 viewBox="0.00 0.00 1357.00 624.00" xmlns="http://www.w3.org/2000/svg" xmlns:xlink="http://www.w3.org/1999/xlink">
<g id="graph0" class="graph" transform="scale(1 1) rotate(0) translate(4 620)">
<title>models_diagram</title>
<polygon style="fill:white;stroke:white;" points="-4,4 -4,-620 1353,-620 1353,4 -4,4"/>
<!-- _diagram_info -->
<g id="node1" class="node"><title>_diagram_info</title>
<text text-anchor="start" x="7.5" y="-570.8" style="font-family:Times New Roman;font-size:13.00;">Models diagram</text>
<text text-anchor="start" x="7.5" y="-553.8" style="font-family:Times New Roman;font-size:13.00;">Date: Mar 15 2012 &#45; 15:57</text>
<text text-anchor="start" x="7.5" y="-536.8" style="font-family:Times New Roman;font-size:13.00;">Migration version: 20120315102304</text>
<text text-anchor="start" x="7.5" y="-519.8" style="font-family:Times New Roman;font-size:13.00;">Generated by RailRoady 1.0.7</text>
<text text-anchor="start" x="7.5" y="-502.8" style="font-family:Times New Roman;font-size:13.00;">http://railroady.prestonlee.com</text>
</g>
<!-- VidSo -->
<g id="node2" class="node"><title>VidSo</title>
<polyline style="fill:none;stroke:black;" points="1015,-318 1156,-318 "/>
<path style="fill:none;stroke:black;" d="M1156,-318C1162,-318 1168,-324 1168,-330"/>
<polyline style="fill:none;stroke:black;" points="1168,-330 1168,-390 "/>
<path style="fill:none;stroke:black;" d="M1168,-390C1168,-396 1162,-402 1156,-402"/>
<polyline style="fill:none;stroke:black;" points="1156,-402 1015,-402 "/>
<path style="fill:none;stroke:black;" d="M1015,-402C1009,-402 1003,-396 1003,-390"/>
<polyline style="fill:none;stroke:black;" points="1003,-390 1003,-330 "/>
<path style="fill:none;stroke:black;" d="M1003,-330C1003,-324 1009,-318 1015,-318"/>
<text text-anchor="middle" x="1085" y="-384.9" style="font-family:Times New Roman;font-size:14.00;">VidSo</text>
<polyline style="fill:none;stroke:black;" points="1003,-377 1168,-377 "/>
<text text-anchor="start" x="1010.5" y="-359.9" style="font-family:Times New Roman;font-size:14.00;">name :string</text>
<text text-anchor="start" x="1010.5" y="-342.9" style="font-family:Times New Roman;font-size:14.00;">created_at :datetime</text>
<text text-anchor="start" x="1010.5" y="-325.9" style="font-family:Times New Roman;font-size:14.00;">updated_at :datetime</text>
</g>
<!-- Siz -->
<g id="node6" class="node"><title>Siz</title>
<polyline style="fill:none;stroke:black;" points="833,-138 974,-138 "/>
<path style="fill:none;stroke:black;" d="M974,-138C980,-138 986,-144 986,-150"/>
<polyline style="fill:none;stroke:black;" points="986,-150 986,-244 "/>
<path style="fill:none;stroke:black;" d="M986,-244C986,-250 980,-256 974,-256"/>
<polyline style="fill:none;stroke:black;" points="974,-256 833,-256 "/>
<path style="fill:none;stroke:black;" d="M833,-256C827,-256 821,-250 821,-244"/>
<polyline style="fill:none;stroke:black;" points="821,-244 821,-150 "/>
<path style="fill:none;stroke:black;" d="M821,-150C821,-144 827,-138 833,-138"/>
<text text-anchor="middle" x="903" y="-238.9" style="font-family:Times New Roman;font-size:14.00;">Siz</text>
<polyline style="fill:none;stroke:black;" points="821,-231 986,-231 "/>
<text text-anchor="start" x="828.5" y="-213.9" style="font-family:Times New Roman;font-size:14.00;">name :string</text>
<text text-anchor="start" x="828.5" y="-196.9" style="font-family:Times New Roman;font-size:14.00;">sert :string</text>
<text text-anchor="start" x="828.5" y="-179.9" style="font-family:Times New Roman;font-size:14.00;">nom :string</text>
<text text-anchor="start" x="828.5" y="-162.9" style="font-family:Times New Roman;font-size:14.00;">created_at :datetime</text>
<text text-anchor="start" x="828.5" y="-145.9" style="font-family:Times New Roman;font-size:14.00;">updated_at :datetime</text>
</g>
<!-- VidSo&#45;&gt;Siz -->
<g id="edge2" class="edge"><title>VidSo&#45;&gt;Siz</title>
<path style="fill:none;stroke:#233c37;" d="M1032,-313C1015,-297 995,-279 977,-263"/>
<ellipse style="fill:none;stroke:#233c37;" cx="1034.93" cy="-315.439" rx="4.00002" ry="4.00002"/>
<polygon style="fill:#233c37;stroke:#233c37;" points="976.526,-262.585 971.963,-252.613 972.763,-259.293 969,-256 969,-256 969,-256 972.763,-259.293 966.037,-259.387 976.526,-262.585 976.526,-262.585"/>
</g>
<!-- TipDoc -->
<g id="node3" class="node"><title>TipDoc</title>
<polyline style="fill:none;stroke:black;" points="287,-318 428,-318 "/>
<path style="fill:none;stroke:black;" d="M428,-318C434,-318 440,-324 440,-330"/>
<polyline style="fill:none;stroke:black;" points="440,-330 440,-390 "/>
<path style="fill:none;stroke:black;" d="M440,-390C440,-396 434,-402 428,-402"/>
<polyline style="fill:none;stroke:black;" points="428,-402 287,-402 "/>
<path style="fill:none;stroke:black;" d="M287,-402C281,-402 275,-396 275,-390"/>
<polyline style="fill:none;stroke:black;" points="275,-390 275,-330 "/>
<path style="fill:none;stroke:black;" d="M275,-330C275,-324 281,-318 287,-318"/>
<text text-anchor="middle" x="357" y="-384.9" style="font-family:Times New Roman;font-size:14.00;">TipDoc</text>
<polyline style="fill:none;stroke:black;" points="275,-377 440,-377 "/>
<text text-anchor="start" x="282.5" y="-359.9" style="font-family:Times New Roman;font-size:14.00;">name :string</text>
<text text-anchor="start" x="282.5" y="-342.9" style="font-family:Times New Roman;font-size:14.00;">created_at :datetime</text>
<text text-anchor="start" x="282.5" y="-325.9" style="font-family:Times New Roman;font-size:14.00;">updated_at :datetime</text>
</g>
<!-- Doc -->
<g id="node11" class="node"><title>Doc</title>
<polyline style="fill:none;stroke:black;" points="651,-146 792,-146 "/>
<path style="fill:none;stroke:black;" d="M792,-146C798,-146 804,-152 804,-158"/>
<polyline style="fill:none;stroke:black;" points="804,-158 804,-235 "/>
<path style="fill:none;stroke:black;" d="M804,-235C804,-241 798,-247 792,-247"/>
<polyline style="fill:none;stroke:black;" points="792,-247 651,-247 "/>
<path style="fill:none;stroke:black;" d="M651,-247C645,-247 639,-241 639,-235"/>
<polyline style="fill:none;stroke:black;" points="639,-235 639,-158 "/>
<path style="fill:none;stroke:black;" d="M639,-158C639,-152 645,-146 651,-146"/>
<text text-anchor="middle" x="721" y="-229.9" style="font-family:Times New Roman;font-size:14.00;">Doc</text>
<polyline style="fill:none;stroke:black;" points="639,-222 804,-222 "/>
<text text-anchor="start" x="646.5" y="-205.4" style="font-family:Times New Roman;font-size:14.00;">name :string</text>
<text text-anchor="start" x="646.5" y="-188.4" style="font-family:Times New Roman;font-size:14.00;">utv :boolean</text>
<text text-anchor="start" x="646.5" y="-171.4" style="font-family:Times New Roman;font-size:14.00;">created_at :datetime</text>
<text text-anchor="start" x="646.5" y="-154.4" style="font-family:Times New Roman;font-size:14.00;">updated_at :datetime</text>
</g>
<!-- TipDoc&#45;&gt;Doc -->
<g id="edge4" class="edge"><title>TipDoc&#45;&gt;Doc</title>
<path style="fill:none;stroke:#82714d;" d="M414,-313C425,-306 436,-298 448,-292 506,-261 575,-237 629,-221"/>
<ellipse style="fill:none;stroke:#82714d;" cx="410.255" cy="-315.675" rx="4.00002" ry="4.00002"/>
<polygon style="fill:#82714d;stroke:#82714d;" points="629.422,-220.874 640.293,-222.31 634.211,-219.437 639,-218 639,-218 639,-218 634.211,-219.437 637.707,-213.69 629.422,-220.874 629.422,-220.874"/>
</g>
<!-- Otdel -->
<g id="node4" class="node"><title>Otdel</title>
<polyline style="fill:none;stroke:black;" points="742,-498 883,-498 "/>
<path style="fill:none;stroke:black;" d="M883,-498C889,-498 895,-504 895,-510"/>
<polyline style="fill:none;stroke:black;" points="895,-510 895,-570 "/>
<path style="fill:none;stroke:black;" d="M895,-570C895,-576 889,-582 883,-582"/>
<polyline style="fill:none;stroke:black;" points="883,-582 742,-582 "/>
<path style="fill:none;stroke:black;" d="M742,-582C736,-582 730,-576 730,-570"/>
<polyline style="fill:none;stroke:black;" points="730,-570 730,-510 "/>
<path style="fill:none;stroke:black;" d="M730,-510C730,-504 736,-498 742,-498"/>
<text text-anchor="middle" x="812" y="-564.9" style="font-family:Times New Roman;font-size:14.00;">Otdel</text>
<polyline style="fill:none;stroke:black;" points="730,-557 895,-557 "/>
<text text-anchor="start" x="737.5" y="-539.9" style="font-family:Times New Roman;font-size:14.00;">created_at :datetime</text>
<text text-anchor="start" x="737.5" y="-522.9" style="font-family:Times New Roman;font-size:14.00;">updated_at :datetime</text>
<text text-anchor="start" x="737.5" y="-505.9" style="font-family:Times New Roman;font-size:14.00;">name :string</text>
</g>
<!-- Rabotnik -->
<g id="node10" class="node"><title>Rabotnik</title>
<polyline style="fill:none;stroke:black;" points="651,-292 792,-292 "/>
<path style="fill:none;stroke:black;" d="M792,-292C798,-292 804,-298 804,-304"/>
<polyline style="fill:none;stroke:black;" points="804,-304 804,-415 "/>
<path style="fill:none;stroke:black;" d="M804,-415C804,-421 798,-427 792,-427"/>
<polyline style="fill:none;stroke:black;" points="792,-427 651,-427 "/>
<path style="fill:none;stroke:black;" d="M651,-427C645,-427 639,-421 639,-415"/>
<polyline style="fill:none;stroke:black;" points="639,-415 639,-304 "/>
<path style="fill:none;stroke:black;" d="M639,-304C639,-298 645,-292 651,-292"/>
<text text-anchor="middle" x="721" y="-409.9" style="font-family:Times New Roman;font-size:14.00;">Rabotnik</text>
<polyline style="fill:none;stroke:black;" points="639,-402 804,-402 "/>
<text text-anchor="start" x="646.5" y="-385.4" style="font-family:Times New Roman;font-size:14.00;">imy :string</text>
<text text-anchor="start" x="646.5" y="-368.4" style="font-family:Times New Roman;font-size:14.00;">otch :string</text>
<text text-anchor="start" x="646.5" y="-351.4" style="font-family:Times New Roman;font-size:14.00;">fam :string</text>
<text text-anchor="start" x="646.5" y="-334.4" style="font-family:Times New Roman;font-size:14.00;">created_at :datetime</text>
<text text-anchor="start" x="646.5" y="-317.4" style="font-family:Times New Roman;font-size:14.00;">updated_at :datetime</text>
<text text-anchor="start" x="646.5" y="-300.4" style="font-family:Times New Roman;font-size:14.00;">tn :string</text>
</g>
<!-- Otdel&#45;&gt;Rabotnik -->
<g id="edge6" class="edge"><title>Otdel&#45;&gt;Rabotnik</title>
<path style="fill:none;stroke:#33a316;" d="M787,-491C778,-474 769,-454 760,-436"/>
<ellipse style="fill:none;stroke:#33a316;" cx="789.015" cy="-494.527" rx="4.00002" ry="4.00002"/>
<polygon style="fill:#33a316;stroke:#33a316;" points="759.856,-435.742 758.934,-424.815 757.428,-431.371 755,-427 755,-427 755,-427 757.428,-431.371 751.066,-429.185 759.856,-435.742 759.856,-435.742"/>
</g>
<!-- TipSo -->
<g id="node5" class="node"><title>TipSo</title>
<polyline style="fill:none;stroke:black;" points="833,-318 974,-318 "/>
<path style="fill:none;stroke:black;" d="M974,-318C980,-318 986,-324 986,-330"/>
<polyline style="fill:none;stroke:black;" points="986,-330 986,-390 "/>
<path style="fill:none;stroke:black;" d="M986,-390C986,-396 980,-402 974,-402"/>
<polyline style="fill:none;stroke:black;" points="974,-402 833,-402 "/>
<path style="fill:none;stroke:black;" d="M833,-402C827,-402 821,-396 821,-390"/>
<polyline style="fill:none;stroke:black;" points="821,-390 821,-330 "/>
<path style="fill:none;stroke:black;" d="M821,-330C821,-324 827,-318 833,-318"/>
<text text-anchor="middle" x="903" y="-384.9" style="font-family:Times New Roman;font-size:14.00;">TipSo</text>
<polyline style="fill:none;stroke:black;" points="821,-377 986,-377 "/>
<text text-anchor="start" x="828.5" y="-359.9" style="font-family:Times New Roman;font-size:14.00;">name :string</text>
<text text-anchor="start" x="828.5" y="-342.9" style="font-family:Times New Roman;font-size:14.00;">created_at :datetime</text>
<text text-anchor="start" x="828.5" y="-325.9" style="font-family:Times New Roman;font-size:14.00;">updated_at :datetime</text>
</g>
<!-- TipSo&#45;&gt;Siz -->
<g id="edge8" class="edge"><title>TipSo&#45;&gt;Siz</title>
<path style="fill:none;stroke:#d07676;" d="M903,-310C903,-296 903,-281 903,-266"/>
<ellipse style="fill:none;stroke:#d07676;" cx="903" cy="-314" rx="4" ry="4"/>
<polygon style="fill:#d07676;stroke:#d07676;" points="903,-266 907.5,-256 903,-261 903,-256 903,-256 903,-256 903,-261 898.5,-256 903,-266 903,-266"/>
</g>
<!-- UsrHistory -->
<g id="node7" class="node"><title>UsrHistory</title>
<polyline style="fill:none;stroke:black;" points="833,-0 974,-0 "/>
<path style="fill:none;stroke:black;" d="M974,-0C980,-0 986,-6 986,-12"/>
<polyline style="fill:none;stroke:black;" points="986,-12 986,-89 "/>
<path style="fill:none;stroke:black;" d="M986,-89C986,-95 980,-101 974,-101"/>
<polyline style="fill:none;stroke:black;" points="974,-101 833,-101 "/>
<path style="fill:none;stroke:black;" d="M833,-101C827,-101 821,-95 821,-89"/>
<polyline style="fill:none;stroke:black;" points="821,-89 821,-12 "/>
<path style="fill:none;stroke:black;" d="M821,-12C821,-6 827,-0 833,-0"/>
<text text-anchor="middle" x="903" y="-83.9" style="font-family:Times New Roman;font-size:14.00;">UsrHistory</text>
<polyline style="fill:none;stroke:black;" points="821,-76 986,-76 "/>
<text text-anchor="start" x="828.5" y="-59.4" style="font-family:Times New Roman;font-size:14.00;">kol :decimal</text>
<text text-anchor="start" x="828.5" y="-42.4" style="font-family:Times New Roman;font-size:14.00;">napr :boolean</text>
<text text-anchor="start" x="828.5" y="-25.4" style="font-family:Times New Roman;font-size:14.00;">created_at :datetime</text>
<text text-anchor="start" x="828.5" y="-8.4" style="font-family:Times New Roman;font-size:14.00;">updated_at :datetime</text>
</g>
<!-- Siz&#45;&gt;UsrHistory -->
<g id="edge12" class="edge"><title>Siz&#45;&gt;UsrHistory</title>
<path style="fill:none;stroke:#bcf82b;" d="M903,-130C903,-124 903,-117 903,-111"/>
<ellipse style="fill:none;stroke:#bcf82b;" cx="903" cy="-134" rx="4" ry="4"/>
<polygon style="fill:#bcf82b;stroke:#bcf82b;" points="903,-111 907.5,-101 903,-106 903,-101 903,-101 903,-101 903,-106 898.5,-101 903,-111 903,-111"/>
</g>
<!-- DocTable -->
<g id="node9" class="node"><title>DocTable</title>
<polyline style="fill:none;stroke:black;" points="651,-9 792,-9 "/>
<path style="fill:none;stroke:black;" d="M792,-9C798,-9 804,-15 804,-21"/>
<polyline style="fill:none;stroke:black;" points="804,-21 804,-81 "/>
<path style="fill:none;stroke:black;" d="M804,-81C804,-87 798,-93 792,-93"/>
<polyline style="fill:none;stroke:black;" points="792,-93 651,-93 "/>
<path style="fill:none;stroke:black;" d="M651,-93C645,-93 639,-87 639,-81"/>
<polyline style="fill:none;stroke:black;" points="639,-81 639,-21 "/>
<path style="fill:none;stroke:black;" d="M639,-21C639,-15 645,-9 651,-9"/>
<text text-anchor="middle" x="721" y="-75.9" style="font-family:Times New Roman;font-size:14.00;">DocTable</text>
<polyline style="fill:none;stroke:black;" points="639,-68 804,-68 "/>
<text text-anchor="start" x="646.5" y="-50.9" style="font-family:Times New Roman;font-size:14.00;">kol :decimal</text>
<text text-anchor="start" x="646.5" y="-33.9" style="font-family:Times New Roman;font-size:14.00;">created_at :datetime</text>
<text text-anchor="start" x="646.5" y="-16.9" style="font-family:Times New Roman;font-size:14.00;">updated_at :datetime</text>
</g>
<!-- Siz&#45;&gt;DocTable -->
<g id="edge10" class="edge"><title>Siz&#45;&gt;DocTable</title>
<path style="fill:none;stroke:#aa9a27;" d="M823,-133C809,-121 795,-110 782,-99"/>
<ellipse style="fill:none;stroke:#aa9a27;" cx="825.927" cy="-135.439" rx="4.00002" ry="4.00002"/>
<polygon style="fill:#aa9a27;stroke:#aa9a27;" points="782,-99 776.7,-89.4 778,-96 774,-93 774,-93 774,-93 778,-96 771.3,-96.6 782,-99 782,-99"/>
</g>
<!-- Ostatok -->
<g id="node15" class="node"><title>Ostatok</title>
<polyline style="fill:none;stroke:black;" points="1060,-9 1201,-9 "/>
<path style="fill:none;stroke:black;" d="M1201,-9C1207,-9 1213,-15 1213,-21"/>
<polyline style="fill:none;stroke:black;" points="1213,-21 1213,-81 "/>
<path style="fill:none;stroke:black;" d="M1213,-81C1213,-87 1207,-93 1201,-93"/>
<polyline style="fill:none;stroke:black;" points="1201,-93 1060,-93 "/>
<path style="fill:none;stroke:black;" d="M1060,-93C1054,-93 1048,-87 1048,-81"/>
<polyline style="fill:none;stroke:black;" points="1048,-81 1048,-21 "/>
<path style="fill:none;stroke:black;" d="M1048,-21C1048,-15 1054,-9 1060,-9"/>
<text text-anchor="middle" x="1130" y="-75.9" style="font-family:Times New Roman;font-size:14.00;">Ostatok</text>
<polyline style="fill:none;stroke:black;" points="1048,-68 1213,-68 "/>
<text text-anchor="start" x="1055.5" y="-50.9" style="font-family:Times New Roman;font-size:14.00;">kol :decimal</text>
<text text-anchor="start" x="1055.5" y="-33.9" style="font-family:Times New Roman;font-size:14.00;">created_at :datetime</text>
<text text-anchor="start" x="1055.5" y="-16.9" style="font-family:Times New Roman;font-size:14.00;">updated_at :datetime</text>
</g>
<!-- Siz&#45;&gt;Ostatok -->
<g id="edge14" class="edge"><title>Siz&#45;&gt;Ostatok</title>
<path style="fill:none;stroke:#f00a83;" d="M993,-139C1014,-126 1036,-112 1056,-99"/>
<ellipse style="fill:none;stroke:#f00a83;" cx="989.473" cy="-141.015" rx="4.00002" ry="4.00002"/>
<polygon style="fill:#f00a83;stroke:#f00a83;" points="1056,-99 1066.7,-96.6 1060,-96 1064,-93 1064,-93 1064,-93 1060,-96 1061.3,-89.4 1056,-99 1056,-99"/>
</g>
<!-- Postavshik -->
<g id="node8" class="node"><title>Postavshik</title>
<polyline style="fill:none;stroke:black;" points="469,-318 610,-318 "/>
<path style="fill:none;stroke:black;" d="M610,-318C616,-318 622,-324 622,-330"/>
<polyline style="fill:none;stroke:black;" points="622,-330 622,-390 "/>
<path style="fill:none;stroke:black;" d="M622,-390C622,-396 616,-402 610,-402"/>
<polyline style="fill:none;stroke:black;" points="610,-402 469,-402 "/>
<path style="fill:none;stroke:black;" d="M469,-402C463,-402 457,-396 457,-390"/>
<polyline style="fill:none;stroke:black;" points="457,-390 457,-330 "/>
<path style="fill:none;stroke:black;" d="M457,-330C457,-324 463,-318 469,-318"/>
<text text-anchor="middle" x="539" y="-384.9" style="font-family:Times New Roman;font-size:14.00;">Postavshik</text>
<polyline style="fill:none;stroke:black;" points="457,-377 622,-377 "/>
<text text-anchor="start" x="464.5" y="-359.9" style="font-family:Times New Roman;font-size:14.00;">name :string</text>
<text text-anchor="start" x="464.5" y="-342.9" style="font-family:Times New Roman;font-size:14.00;">created_at :datetime</text>
<text text-anchor="start" x="464.5" y="-325.9" style="font-family:Times New Roman;font-size:14.00;">updated_at :datetime</text>
</g>
<!-- Postavshik&#45;&gt;Doc -->
<g id="edge16" class="edge"><title>Postavshik&#45;&gt;Doc</title>
<path style="fill:none;stroke:#549b39;" d="M592,-313C613,-294 636,-273 657,-254"/>
<ellipse style="fill:none;stroke:#549b39;" cx="589.073" cy="-315.439" rx="4.00002" ry="4.00002"/>
<polygon style="fill:#549b39;stroke:#549b39;" points="657.474,-253.585 667.963,-250.387 661.237,-250.293 665,-247 665,-247 665,-247 661.237,-250.293 662.037,-243.613 657.474,-253.585 657.474,-253.585"/>
</g>
<!-- Rabotnik&#45;&gt;Doc -->
<g id="edge18" class="edge"><title>Rabotnik&#45;&gt;Doc</title>
<path style="fill:none;stroke:#6841a2;" d="M721,-284C721,-275 721,-266 721,-257"/>
<ellipse style="fill:none;stroke:#6841a2;" cx="721" cy="-288" rx="4" ry="4"/>
<polygon style="fill:#6841a2;stroke:#6841a2;" points="721,-257 725.5,-247 721,-252 721,-247 721,-247 721,-247 721,-252 716.5,-247 721,-257 721,-257"/>
</g>
<!-- Doc&#45;&gt;UsrHistory -->
<g id="edge22" class="edge"><title>Doc&#45;&gt;UsrHistory</title>
<path style="fill:none;stroke:#f02fdc;" d="M791,-141C805,-129 819,-118 833,-107"/>
<ellipse style="fill:none;stroke:#f02fdc;" cx="788.073" cy="-143.439" rx="4.00002" ry="4.00002"/>
<polygon style="fill:#f02fdc;stroke:#f02fdc;" points="833,-107 843.7,-104.6 837,-104 841,-101 841,-101 841,-101 837,-104 838.3,-97.4 833,-107 833,-107"/>
</g>
<!-- Doc&#45;&gt;DocTable -->
<g id="edge20" class="edge"><title>Doc&#45;&gt;DocTable</title>
<path style="fill:none;stroke:#8bd520;" d="M721,-138C721,-127 721,-114 721,-103"/>
<ellipse style="fill:none;stroke:#8bd520;" cx="721" cy="-142" rx="4" ry="4"/>
<polygon style="fill:#8bd520;stroke:#8bd520;" points="721,-103 725.5,-93 721,-98 721,-93 721,-93 721,-93 721,-98 716.5,-93 721,-103 721,-103"/>
</g>
<!-- Sklad -->
<g id="node12" class="node"><title>Sklad</title>
<polyline style="fill:none;stroke:black;" points="1197,-318 1338,-318 "/>
<path style="fill:none;stroke:black;" d="M1338,-318C1344,-318 1350,-324 1350,-330"/>
<polyline style="fill:none;stroke:black;" points="1350,-330 1350,-390 "/>
<path style="fill:none;stroke:black;" d="M1350,-390C1350,-396 1344,-402 1338,-402"/>
<polyline style="fill:none;stroke:black;" points="1338,-402 1197,-402 "/>
<path style="fill:none;stroke:black;" d="M1197,-402C1191,-402 1185,-396 1185,-390"/>
<polyline style="fill:none;stroke:black;" points="1185,-390 1185,-330 "/>
<path style="fill:none;stroke:black;" d="M1185,-330C1185,-324 1191,-318 1197,-318"/>
<text text-anchor="middle" x="1267" y="-384.9" style="font-family:Times New Roman;font-size:14.00;">Sklad</text>
<polyline style="fill:none;stroke:black;" points="1185,-377 1350,-377 "/>
<text text-anchor="start" x="1192.5" y="-359.9" style="font-family:Times New Roman;font-size:14.00;">created_at :datetime</text>
<text text-anchor="start" x="1192.5" y="-342.9" style="font-family:Times New Roman;font-size:14.00;">updated_at :datetime</text>
<text text-anchor="start" x="1192.5" y="-325.9" style="font-family:Times New Roman;font-size:14.00;">name :string</text>
</g>
<!-- Sklad&#45;&gt;Doc -->
<g id="edge24" class="edge"><title>Sklad&#45;&gt;Doc</title>
<path style="fill:none;stroke:#cc0b1c;" d="M1214,-313C1202,-305 1190,-297 1176,-292 1024,-233 965,-309 812,-256 808,-255 804,-253 800,-251"/>
<ellipse style="fill:none;stroke:#cc0b1c;" cx="1217.75" cy="-315.675" rx="4.00002" ry="4.00002"/>
<polygon style="fill:#cc0b1c;stroke:#cc0b1c;" points="800.138,-251.061 792.828,-242.888 795.569,-249.031 791,-247 791,-247 791,-247 795.569,-249.031 789.172,-251.112 800.138,-251.061 800.138,-251.061"/>
</g>
<!-- Sklad&#45;&gt;Ostatok -->
<g id="edge26" class="edge"><title>Sklad&#45;&gt;Ostatok</title>
<path style="fill:none;stroke:#6c3b70;" d="M1245,-311C1219,-253 1179,-160 1153,-102"/>
<ellipse style="fill:none;stroke:#6c3b70;" cx="1246.42" cy="-314.323" rx="4.00002" ry="4.00002"/>
<polygon style="fill:#6c3b70;stroke:#6c3b70;" points="1153.06,-102.138 1153.11,-91.1723 1151.03,-97.5691 1149,-93 1149,-93 1149,-93 1151.03,-97.5691 1144.89,-94.8277 1153.06,-102.138 1153.06,-102.138"/>
</g>
<!-- Dolgnost -->
<g id="node13" class="node"><title>Dolgnost</title>
<polyline style="fill:none;stroke:black;" points="560,-489 701,-489 "/>
<path style="fill:none;stroke:black;" d="M701,-489C707,-489 713,-495 713,-501"/>
<polyline style="fill:none;stroke:black;" points="713,-501 713,-578 "/>
<path style="fill:none;stroke:black;" d="M713,-578C713,-584 707,-590 701,-590"/>
<polyline style="fill:none;stroke:black;" points="701,-590 560,-590 "/>
<path style="fill:none;stroke:black;" d="M560,-590C554,-590 548,-584 548,-578"/>
<polyline style="fill:none;stroke:black;" points="548,-578 548,-501 "/>
<path style="fill:none;stroke:black;" d="M548,-501C548,-495 554,-489 560,-489"/>
<text text-anchor="middle" x="630" y="-572.9" style="font-family:Times New Roman;font-size:14.00;">Dolgnost</text>
<polyline style="fill:none;stroke:black;" points="548,-565 713,-565 "/>
<text text-anchor="start" x="555.5" y="-548.4" style="font-family:Times New Roman;font-size:14.00;">name :string</text>
<text text-anchor="start" x="555.5" y="-531.4" style="font-family:Times New Roman;font-size:14.00;">prior :integer</text>
<text text-anchor="start" x="555.5" y="-514.4" style="font-family:Times New Roman;font-size:14.00;">created_at :datetime</text>
<text text-anchor="start" x="555.5" y="-497.4" style="font-family:Times New Roman;font-size:14.00;">updated_at :datetime</text>
</g>
<!-- Dolgnost&#45;&gt;Rabotnik -->
<g id="edge28" class="edge"><title>Dolgnost&#45;&gt;Rabotnik</title>
<path style="fill:none;stroke:#dfea7d;" d="M660,-482C668,-468 675,-451 683,-436"/>
<ellipse style="fill:none;stroke:#dfea7d;" cx="657.985" cy="-485.527" rx="4.00002" ry="4.00002"/>
<polygon style="fill:#dfea7d;stroke:#dfea7d;" points="682.939,-436.138 691.112,-428.828 684.969,-431.569 687,-427 687,-427 687,-427 684.969,-431.569 682.888,-425.172 682.939,-436.138 682.939,-436.138"/>
</g>
<!-- Razmer -->
<g id="node14" class="node"><title>Razmer</title>
<polyline style="fill:none;stroke:black;" points="278,-464 419,-464 "/>
<path style="fill:none;stroke:black;" d="M419,-464C425,-464 431,-470 431,-476"/>
<polyline style="fill:none;stroke:black;" points="431,-476 431,-604 "/>
<path style="fill:none;stroke:black;" d="M431,-604C431,-610 425,-616 419,-616"/>
<polyline style="fill:none;stroke:black;" points="419,-616 278,-616 "/>
<path style="fill:none;stroke:black;" d="M278,-616C272,-616 266,-610 266,-604"/>
<polyline style="fill:none;stroke:black;" points="266,-604 266,-476 "/>
<path style="fill:none;stroke:black;" d="M266,-476C266,-470 272,-464 278,-464"/>
<text text-anchor="middle" x="348" y="-598.9" style="font-family:Times New Roman;font-size:14.00;">Razmer</text>
<polyline style="fill:none;stroke:black;" points="266,-591 431,-591 "/>
<text text-anchor="start" x="273.5" y="-573.9" style="font-family:Times New Roman;font-size:14.00;">name :string</text>
<text text-anchor="start" x="273.5" y="-556.9" style="font-family:Times New Roman;font-size:14.00;">rost :string</text>
<text text-anchor="start" x="273.5" y="-539.9" style="font-family:Times New Roman;font-size:14.00;">razm :string</text>
<text text-anchor="start" x="273.5" y="-522.9" style="font-family:Times New Roman;font-size:14.00;">razm_g :string</text>
<text text-anchor="start" x="273.5" y="-505.9" style="font-family:Times New Roman;font-size:14.00;">rost_o :string</text>
<text text-anchor="start" x="273.5" y="-488.9" style="font-family:Times New Roman;font-size:14.00;">created_at :datetime</text>
<text text-anchor="start" x="273.5" y="-471.9" style="font-family:Times New Roman;font-size:14.00;">updated_at :datetime</text>
</g>
<!-- Razmer&#45;&gt;DocTable -->
<g id="edge32" class="edge"><title>Razmer&#45;&gt;DocTable</title>
<path style="fill:none;stroke:#42e4af;" d="M279,-457C274,-447 269,-438 266,-428 248,-370 235,-343 266,-292 346,-161 521,-98 629,-70"/>
<ellipse style="fill:none;stroke:#42e4af;" cx="281.015" cy="-460.527" rx="4.00002" ry="4.00002"/>
<polygon style="fill:#42e4af;stroke:#42e4af;" points="629.422,-69.8735 640.293,-71.3102 634.211,-68.4368 639,-67 639,-67 639,-67 634.211,-68.4368 637.707,-62.6898 629.422,-69.8735 629.422,-69.8735"/>
</g>
<!-- Razmer&#45;&gt;Rabotnik -->
<g id="edge30" class="edge"><title>Razmer&#45;&gt;Rabotnik</title>
<path style="fill:none;stroke:#82b6eb;" d="M439,-504C471,-491 507,-477 539,-464 580,-447 593,-449 630,-428 630,-428 630,-428 630,-428"/>
<ellipse style="fill:none;stroke:#82b6eb;" cx="434.745" cy="-505.595" rx="4.00001" ry="4.00001"/>
<polygon style="fill:#82b6eb;stroke:#82b6eb;" points="630.258,-427.856 641.185,-426.934 634.629,-425.428 639,-423 639,-423 639,-423 634.629,-425.428 636.815,-419.066 630.258,-427.856 630.258,-427.856"/>
</g>
</g>
</svg>
